<?xml version="1.0"?>
<svg xmlns="http://www.w3.org/2000/svg" height="289.728" viewBox="0 0 195.6877 289.728" width="195.6877" fill="#f9d341"><path d="m189.68385 289.728h-183.6900006a6 6 0 0 1 -5.19-9l91.8399996-159.08a6 6 0 0 1 10.390001 0l91.85 159.08a6 6 0 0 1 -5.2 9zm-173.300001-12h162.910001l-81.470001-141.08z" fill="#f9d341"/><path d="m189.68385 227.848h-35.73a6 6 0 0 1 0-12h25.34l-81.470001-141.089995-81.44 141.089995h25.34a6 6 0 0 1 0 12h-35.7299996a6 6 0 0 1 -5.19-9l91.8399996-159.089995a6 6 0 0 1 10.390001 0l91.85 159.089995a6 6 0 0 1 -5.2 9z" fill="#f9d341"/><path d="m189.68385 171.118h-32.74a6 6 0 0 1 0-12h22.35l-81.470001-141.119995-81.44 141.119995h22.36a6 6 0 0 1 0 12h-32.7499996a6 6 0 0 1 -5.19-9l91.8399996-159.1199952a6 6 0 0 1 10.390001 0l91.85 159.0799952a6 6 0 0 1 -5.2 9z" fill="#f9d341"/></svg>
