<svg width="350" height="72" viewBox="0 0 350 72" fill="none" xmlns="http://www.w3.org/2000/svg">
<g filter="url(#filter0_d_6_42)">
<path d="M24.3756 50.84C19.9756 50.84 16.0156 49.92 12.4956 48.08C9.01555 46.2 6.27555 43.6 4.27555 40.28C2.27555 36.96 1.27555 33.2 1.27555 29C1.27555 24.8 2.27555 21.04 4.27555 17.72C6.27555 14.4 9.01555 11.82 12.4956 9.98C16.0156 8.1 19.9756 7.16 24.3756 7.16C28.2156 7.16 31.6756 7.84 34.7556 9.2C37.8356 10.56 40.3956 12.52 42.4356 15.08L34.8756 21.92C32.1556 18.64 28.8556 17 24.9756 17C22.6956 17 20.6556 17.5 18.8556 18.5C17.0956 19.5 15.7156 20.92 14.7156 22.76C13.7556 24.56 13.2756 26.64 13.2756 29C13.2756 31.36 13.7556 33.46 14.7156 35.3C15.7156 37.1 17.0956 38.5 18.8556 39.5C20.6556 40.5 22.6956 41 24.9756 41C28.8556 41 32.1556 39.36 34.8756 36.08L42.4356 42.92C40.3956 45.48 37.8356 47.44 34.7556 48.8C31.6756 50.16 28.2156 50.84 24.3756 50.84ZM50.7924 17.48H62.1924V50H50.7924V17.48ZM56.4924 13.88C54.4124 13.88 52.7324 13.3 51.4524 12.14C50.1724 10.98 49.5324 9.54 49.5324 7.82C49.5324 6.1 50.1724 4.66 51.4524 3.5C52.7324 2.34 54.4124 1.76 56.4924 1.76C58.5724 1.76 60.2524 2.32 61.5324 3.44C62.8124 4.52 63.4524 5.92 63.4524 7.64C63.4524 9.44 62.8124 10.94 61.5324 12.14C60.2524 13.3 58.5724 13.88 56.4924 13.88ZM94.381 16.94C98.421 16.94 101.661 18.14 104.101 20.54C106.581 22.94 107.821 26.56 107.821 31.4V50H96.421V33.26C96.421 28.82 94.641 26.6 91.081 26.6C89.121 26.6 87.541 27.24 86.341 28.52C85.181 29.8 84.601 31.72 84.601 34.28V50H73.201V17.48H84.061V21.02C85.341 19.7 86.861 18.7 88.621 18.02C90.381 17.3 92.301 16.94 94.381 16.94ZM136.447 41.84C138.007 41.84 139.347 41.62 140.467 41.18C141.627 40.74 142.787 40.02 143.947 39.02L149.887 45.26C146.807 48.78 142.207 50.54 136.087 50.54C132.287 50.54 128.947 49.82 126.067 48.38C123.187 46.94 120.947 44.94 119.347 42.38C117.787 39.82 117.007 36.92 117.007 33.68C117.007 30.48 117.787 27.62 119.347 25.1C120.907 22.54 123.047 20.54 125.767 19.1C128.527 17.66 131.607 16.94 135.007 16.94C138.167 16.94 141.047 17.6 143.647 18.92C146.287 20.2 148.387 22.1 149.947 24.62C151.507 27.1 152.287 30.06 152.287 33.5L129.067 37.94C130.307 40.54 132.767 41.84 136.447 41.84ZM135.067 25.04C133.107 25.04 131.507 25.66 130.267 26.9C129.027 28.1 128.327 29.84 128.167 32.12L141.367 29.54C140.967 28.18 140.207 27.1 139.087 26.3C137.967 25.46 136.627 25.04 135.067 25.04ZM181.603 16.94C184.563 16.94 187.243 17.62 189.643 18.98C192.083 20.34 194.003 22.3 195.403 24.86C196.843 27.38 197.563 30.32 197.563 33.68C197.563 37.04 196.843 40 195.403 42.56C194.003 45.12 192.083 47.1 189.643 48.5C187.243 49.86 184.563 50.54 181.603 50.54C177.323 50.54 174.123 49.28 172.003 46.76V50H161.143V5.48H172.543V20.3C174.743 18.06 177.763 16.94 181.603 16.94ZM179.203 41.48C181.203 41.48 182.843 40.8 184.123 39.44C185.403 38.04 186.043 36.12 186.043 33.68C186.043 31.28 185.403 29.4 184.123 28.04C182.843 26.68 181.203 26 179.203 26C177.203 26 175.563 26.68 174.283 28.04C173.003 29.4 172.363 31.28 172.363 33.68C172.363 36.12 173.003 38.04 174.283 39.44C175.563 40.8 177.203 41.48 179.203 41.48ZM206.462 17.48H217.862V50H206.462V17.48ZM212.162 13.88C210.082 13.88 208.402 13.3 207.122 12.14C205.842 10.98 205.202 9.54 205.202 7.82C205.202 6.1 205.842 4.66 207.122 3.5C208.402 2.34 210.082 1.76 212.162 1.76C214.242 1.76 215.922 2.32 217.202 3.44C218.482 4.52 219.122 5.92 219.122 7.64C219.122 9.44 218.482 10.94 217.202 12.14C215.922 13.3 214.242 13.88 212.162 13.88ZM241.531 50.54C237.531 50.54 234.411 49.52 232.171 47.48C229.971 45.4 228.871 42.44 228.871 38.6V5.48H240.271V38C240.271 39.2 240.571 40.12 241.171 40.76C241.811 41.4 242.691 41.72 243.811 41.72C244.731 41.72 245.591 41.52 246.391 41.12L246.871 49.7C245.151 50.26 243.371 50.54 241.531 50.54ZM254.56 17.48H265.96V50H254.56V17.48ZM260.26 13.88C258.18 13.88 256.5 13.3 255.22 12.14C253.94 10.98 253.3 9.54 253.3 7.82C253.3 6.1 253.94 4.66 255.22 3.5C256.5 2.34 258.18 1.76 260.26 1.76C262.34 1.76 264.02 2.32 265.3 3.44C266.58 4.52 267.22 5.92 267.22 7.64C267.22 9.44 266.58 10.94 265.3 12.14C264.02 13.3 262.34 13.88 260.26 13.88ZM297.909 48.68C296.949 49.28 295.769 49.74 294.369 50.06C293.009 50.38 291.549 50.54 289.989 50.54C285.749 50.54 282.489 49.5 280.209 47.42C277.969 45.34 276.849 42.24 276.849 38.12V10.22H288.249V18.68H295.629V27.2H288.249V38C288.249 39.2 288.549 40.12 289.149 40.76C289.749 41.4 290.569 41.72 291.609 41.72C292.929 41.72 294.089 41.38 295.089 40.7L297.909 48.68ZM340.081 17.48V44.06C340.081 50.1 338.461 54.62 335.221 57.62C332.021 60.66 327.401 62.18 321.361 62.18C318.201 62.18 315.241 61.82 312.481 61.1C309.761 60.38 307.441 59.32 305.521 57.92L309.661 49.94C310.941 51.02 312.541 51.86 314.461 52.46C316.421 53.1 318.361 53.42 320.281 53.42C323.161 53.42 325.281 52.76 326.641 51.44C328.001 50.12 328.681 48.16 328.681 45.56V44.84C326.241 47.16 323.201 48.32 319.561 48.32C315.361 48.32 312.001 47.08 309.481 44.6C307.001 42.12 305.761 38.4 305.761 33.44V17.48H317.161V31.58C317.161 34.06 317.621 35.86 318.541 36.98C319.461 38.1 320.801 38.66 322.561 38.66C324.361 38.66 325.821 38.02 326.941 36.74C328.101 35.46 328.681 33.54 328.681 30.98V17.48H340.081Z" fill="#FEB602"/>
</g>
<defs>
<filter id="filter0_d_6_42" x="0.275513" y="0.76001" width="348.806" height="70.42" filterUnits="userSpaceOnUse" color-interpolation-filters="sRGB">
<feFlood flood-opacity="0" result="BackgroundImageFix"/>
<feColorMatrix in="SourceAlpha" type="matrix" values="0 0 0 0 0 0 0 0 0 0 0 0 0 0 0 0 0 0 127 0" result="hardAlpha"/>
<feOffset dx="4" dy="4"/>
<feGaussianBlur stdDeviation="2.5"/>
<feComposite in2="hardAlpha" operator="out"/>
<feColorMatrix type="matrix" values="0 0 0 0 0 0 0 0 0 0 0 0 0 0 0 0 0 0 0.2 0"/>
<feBlend mode="normal" in2="BackgroundImageFix" result="effect1_dropShadow_6_42"/>
<feBlend mode="normal" in="SourceGraphic" in2="effect1_dropShadow_6_42" result="shape"/>
</filter>
</defs>
</svg>
